<?xml version="1.0" encoding="utf-8"?>
<!-- Generator: Adobe Illustrator 26.0.2, SVG Export Plug-In . SVG Version: 6.00 Build 0)  -->
<svg version="1.1" id="Layer_1" xmlns="http://www.w3.org/2000/svg" xmlns:xlink="http://www.w3.org/1999/xlink" x="0px" y="0px"
	 viewBox="0 0 679.4 540.8" style="enable-background:new 0 0 679.4 540.8;" xml:space="preserve">
<style type="text/css">
	.st0{fill:none;}
	.st1{fill:none;stroke:#839D7E;stroke-width:3;stroke-miterlimit:10;}
	.st2{enable-background:new    ;}
	.st3{fill:none;stroke:#384435;stroke-width:3;stroke-miterlimit:10;}
	.st4{fill:#384435;}
</style>
<g id="Layer_2_00000031917753826388759450000010689277328972064676_">
	<rect x="0.3" y="298.6" class="st0" width="678.8" height="175.5"/>
	<path class="st1" d="M277.8,289.6l-33.8,3l-19.8-14.4l54.4-2.7l-34.3-31.4l1.3-15.2l46.7,43.2c8.8-3.8,16.8-9.2,23.6-15.9
		l-65.1-54.7c-9.8,12.7-13.7,26-14.6,39.9c-0.6,9.6,1.2,25.6,2.6,36"/>
	<path class="st1" d="M315.8,168.4c-6.4,0.3-12.8,1.2-19.1,2.8l35.3,29.7l-1.8,14.6l-47.1-39.7c-9,3.9-17.1,9.5-24.1,16.4l65.1,54.8
		"/>
	<path class="st1" d="M224,278.1c-1.4-10.7-4.3-27.3-3.7-37.8c1.1-17.3,6.2-33.9,19-49.9c13.6-17.1,29-26.7,45.2-32.3
		c12.9-4.4,33.2-6.2,33.2-6.2"/>
	<path class="st1" d="M332.6,150.9l16.6,10.7c2.6,16.5,5.1,32.5,4.1,48.2c-1.1,16.4-5.9,32.1-18,47.3c-5.9,7.5-12.9,14.2-20.8,19.6
		c-9.8,6.7-21.1,10.9-32.9,12.4l-3.8,0.5"/>
	<line class="st1" x1="315.3" y1="177.5" x2="330" y2="190"/>
	<path class="st1" d="M343.6,123l15,51.3l10.3-10.9l-15.6-50.8l0,0c-1.5-1.9,10.8-17.6,15.3-17.9l26.7,72.1l0,0
		c0,0-21.7,13.3-43.4,12.4l0,0"/>
	<path class="st1" d="M343.6,123c-12.1,18-12.6,45.7-12.8,46.7l-0.2,5.2l-0.5,15.1l7.9,1.9"/>
	<path class="st1" d="M315.3,177.5c0,0-1.5-134.5,129.8-107"/>
	<path class="st1" d="M445.2,86.9L445.2,86.9c-24.6-6.3-43.6-5.3-57.7-0.1l-1.1,0.3l25,69.1l5-3.7c5.8-3.3,10.6-8.2,13.8-14.1l0,0
		l-19.7-48.5l16,4l13,30.5l0,0c1.6-8.4,3.5-20.6,4.9-29.7c1.2-8,1.5-16.1,0.8-24.2l0,0"/>
	<path class="st1" d="M323.7,247.3c9.7-12.2,13.5-25.1,14.4-38.5c0.9-14.1-1.4-29.2-3.9-44.8c-1.1-7.2-0.5-6.7-1.5-13"/>
	<line class="st1" x1="330.9" y1="167.7" x2="335" y2="168.5"/>
	<line class="st1" x1="336.4" y1="178" x2="330.5" y2="176.8"/>
	<path class="st1" d="M353.2,193.1L353.2,193.1c3-0.1,6-0.4,9-1c71-14.3,87.7-57.5,87.7-57.5c6.7-16.9,9.4-35.2,7.8-53.3l0,0
		l-12.6-10.8"/>
	<g>
		<g class="st2">
			<path class="st3" d="M16.6,446.9c-1.9-1.7-2.8-3.8-2.8-6.2V318.3c0-2.5,0.9-4.6,2.8-6.3c1.9-1.7,4.1-2.5,6.8-2.5H79
				c11.6,0,20.8,3.5,27.7,10.4c6.9,6.9,10.3,16.3,10.3,28c0,6.3-1.7,12.1-5,17.6c-3.3,5.5-7.7,9.5-13,12.2v0.4
				c7.6,2.3,13.5,6.2,17.6,11.7c4.1,5.5,6.2,12.2,6.2,20.1c0,7.7-1.6,14.6-4.9,20.6c-3.3,6-7.8,10.7-13.7,14c-5.9,3.3-12.6,5-20.2,5
				H23.4C20.7,449.5,18.5,448.6,16.6,446.9z M78.6,371.3c5.5,0,10.2-2.2,14.1-6.7c3.9-4.5,5.9-9.9,5.9-16.3c0-7.1-1.8-12.6-5.3-16.6
				c-3.5-4-8.4-6-14.7-6H32.4v45.6H78.6z M82.6,433.3c6.8,0,12.1-2,16-6.1c3.9-4.1,5.8-9.8,5.8-17.1c0-7.1-1.9-12.6-5.7-16.6
				c-3.8-4-9.2-6-16.1-6H32.4v45.8H82.6z"/>
		</g>
		<g class="st2">
			<path class="st3" d="M149.6,329.1c-2.5-2.4-3.8-5.4-3.8-9c0-3.6,1.3-6.6,3.8-8.9c2.5-2.3,5.7-3.5,9.4-3.5c3.6,0,6.7,1.2,9.2,3.5
				c2.5,2.3,3.8,5.3,3.8,8.9c0,3.6-1.3,6.6-3.8,9c-2.5,2.4-5.6,3.6-9.2,3.6C155.3,332.7,152.1,331.5,149.6,329.1z M150.2,360.5
				c0-4.4,1.4-7.6,4.3-9.7c2.9-2.1,7.2-3.1,13.1-3.1v90.8c0,4.4-1.4,7.6-4.3,9.7c-2.9,2.1-7.2,3.1-13.1,3.1V360.5z"/>
		</g>
		<g class="st2">
			<path class="st3" d="M210.9,446.7c-6.6-3.1-11.7-7.2-15.4-12.5c-3.7-5.3-5.5-11.2-5.5-17.7v-32.8c0-6.7,1.8-12.7,5.5-18.2
				c3.7-5.5,8.8-9.8,15.3-13c6.5-3.2,13.9-4.8,22.2-4.8c8.3,0,15.7,1.6,22.3,4.8c6.6,3.2,11.7,7.5,15.4,13
				c3.7,5.5,5.5,11.5,5.5,18.2v32.8c0,6.5-1.9,12.4-5.6,17.7c-3.7,5.3-8.9,9.4-15.4,12.5c-6.5,3.1-13.9,4.6-22.2,4.6
				C224.9,451.3,217.5,449.8,210.9,446.7z M252.1,430.6c4.7-3.8,7.1-8.8,7.1-14.9v-31.4c0-6.4-2.4-11.6-7.1-15.6
				c-4.7-4-11.1-6-19.1-6c-7.9,0-14.2,2-19,6s-7.2,9.2-7.2,15.6v31.4c0,6.1,2.4,11.1,7.1,14.9c4.7,3.8,11.1,5.7,19.1,5.7
				S247.4,434.4,252.1,430.6z"/>
		</g>
		<g class="st2">
			<path class="st4" d="M307.1,446.6c-1.9-1.9-2.9-4.2-2.9-6.9V323.3c0-10.4,6.3-15.6,18.8-15.6v125.2h61.4c4.7,0,8.3,1.4,10.8,4.3
				c2.5,2.9,3.8,7,3.8,12.3h-85C311.3,449.5,309,448.5,307.1,446.6z"/>
			<path class="st4" d="M423.8,329.1c-2.5-2.4-3.8-5.4-3.8-9c0-3.6,1.3-6.6,3.8-8.9c2.5-2.3,5.7-3.5,9.4-3.5c3.6,0,6.7,1.2,9.2,3.5
				c2.5,2.3,3.8,5.3,3.8,8.9c0,3.6-1.3,6.6-3.8,9c-2.5,2.4-5.6,3.6-9.2,3.6C429.5,332.7,426.3,331.5,423.8,329.1z M424.4,360.5
				c0-4.4,1.4-7.6,4.3-9.7c2.9-2.1,7.2-3.1,13.1-3.1v90.8c0,4.4-1.4,7.6-4.3,9.7c-2.9,2.1-7.2,3.1-13.1,3.1V360.5z"/>
			<path class="st4" d="M474.2,362.5c0-9.9,5.6-14.8,16.8-14.8v12.8c-1.2,1.2-2.6,3-4.2,5.4l0.8,0.8c4-5.6,9.2-10.2,15.6-13.7
				c6.4-3.5,13.3-5.3,20.8-5.3c10.8,0,19.3,3.2,25.6,9.6c6.3,6.4,9.4,14.7,9.4,24.8v56.4c0,4.4-1.4,7.6-4.3,9.7
				c-2.9,2.1-7.2,3.1-13.1,3.1v-67.4c0-6.4-1.8-11.5-5.4-15.2c-3.6-3.7-9.1-5.6-16.4-5.6c-4.9,0-9.6,1-13.9,3.1
				c-4.3,2.1-7.8,4.9-10.4,8.4c-2.6,3.5-3.9,7.4-3.9,11.5v52.4c0,4.4-1.4,7.6-4.3,9.7c-2.9,2.1-7.2,3.1-13.1,3.1V362.5z"/>
			<path class="st4" d="M668.2,446.9c-1.1,1.3-2.4,2.4-4,3.2c-1.6,0.8-3.4,1.2-5.4,1.2c-2.1,0-4-0.4-5.6-1.2
				c-1.6-0.8-3.1-2.3-4.4-4.4L617,395.9l-14.8,13.2v29.6c0,8.4-5.7,12.6-17.2,12.6V322.1c0-9.6,5.8-14.4,17.4-14.4l-0.2,83.6
				l48.4-43.4c3.9,3.6,5.8,6.7,5.8,9.2c0,1.9-0.4,3.4-1.3,4.5c-0.9,1.1-2.5,2.8-4.9,4.9l-22.4,19.8L668.2,446.9z"/>
		</g>
	</g>
</g>
</svg>
